<svg fill="none" height="20" viewBox="0 0 20 20" width="20" xmlns="http://www.w3.org/2000/svg"><path d="M13.76 6.614c-.622.185-1.091.603-1.435 1.057-.074.097-.227.024-.198-.095.658-2.706-.212-4.955-2.921-6.062a.181.181 0 0 0-.245.211c1.233 4.95-3.952 4.532-3.296 10.142.01.096-.097.162-.176.106-.246-.176-.52-.544-.708-.803a.113.113 0 0 0-.2.036 5.63 5.63 0 0 0 2.327 6.273c.087.058.2-.025.17-.125a3.04 3.04 0 0 1-.088-1.361c.064-.425.212-.83.46-1.198.85-1.276 2.554-2.509 2.282-4.182-.017-.106.108-.176.186-.104 1.201 1.097 1.439 2.573 1.242 3.896-.017.115.127.176.2.086.183-.23.407-.431.651-.583a.112.112 0 0 1 .165.059c.136.395.338.765.528 1.136a3.03 3.03 0 0 1 .204 2.25.113.113 0 0 0 .17.128 5.63 5.63 0 0 0 2.55-4.715 5.9 5.9 0 0 0-.348-1.987c-.476-1.321-1.683-2.313-1.378-4.035.015-.082-.061-.154-.141-.13" fill="currentColor"/></svg>