<svg xmlns="http://www.w3.org/2000/svg" viewBox="0 0 151 182" fill="none"><path d="M150.5 14.106c0 .23-.079.452-.223.63L88.477 91l61.8 76.264c.144.178.223.4.223.63V181a1 1 0 0 1-1 1H1a1 1 0 0 1-1-1V1a1 1 0 0 1 1-1h148.5a1 1 0 0 1 1 1zM30.406 162.72h91.322l-45.662-56.393zm-11.111-62.458v45.526l36.862-45.526zm0-19.28h36.248L19.295 36.211zm56.771-5.308 45.662-56.392H30.406z" fill="#000"/><path d="M150.5 14.106c0 .23-.079.452-.223.63L88.477 91l61.8 76.264c.144.178.223.4.223.63V181a1 1 0 0 1-1 1H1a1 1 0 0 1-1-1V1a1 1 0 0 1 1-1h148.5a1 1 0 0 1 1 1zM30.406 162.72h91.322l-45.662-56.393zm-11.111-62.458v45.526l36.862-45.526zm0-19.28h36.248L19.295 36.211zm56.771-5.308 45.662-56.392H30.406z" fill="#0143d9"/></svg>