<svg xmlns="http://www.w3.org/2000/svg" width="303" height="303" viewBox="0 0 303 303" fill="none"><rect width="100%" height="100%" fill="#ebf212"/><path d="M166.362 110.96 166.312.722C161.444.252 156.492 0 151.507 0a152.5 152.5 0 0 0-35.25 4.13l33.605 105.857c1.897 5.959-5.355 10.558-9.937 6.311L53.261 36.192a152.4 152.4 0 0 0-31.322 36.763l110.499 58.452c15.393 8.141 33.924-3.022 33.924-20.447m-30.09 81.6.05 109.685c5.002.503 10.071.755 15.191.755a152 152 0 0 0 34.746-4.012l-33.487-105.454c-1.897-5.959 5.354-10.559 9.937-6.312l86.563 80.006a152.4 152.4 0 0 0 31.473-36.629l-110.55-58.468c-15.392-8.142-33.923 3.022-33.923 20.446zm50.505-52.189 80.268-86.854a152 152 0 0 0-36.76-31.442L171.67 132.901c-8.141 15.394 3.021 33.926 20.445 33.909l110.13-.05q.755-7.529.755-15.259c0-11.986-1.393-23.636-4.028-34.816l-105.884 33.624c-5.959 1.897-10.558-5.355-6.311-9.938m-76.261-3.66-109.794.05a151.9 151.9 0 0 0 3.39 49.924l105.414-33.473c5.959-1.897 10.558 5.355 6.311 9.938l-79.832 86.384a152.1 152.1 0 0 0 36.626 31.341l58.313-110.255c8.141-15.394-3.021-33.926-20.445-33.926z" fill="#1f1f1e"/></svg>